<svg width="30" height="28" viewBox="0 0 30 28" fill="none" xmlns="http://www.w3.org/2000/svg">
<path d="M15.001 1.2002C15.1219 1.20027 15.2372 1.23745 15.3301 1.30273C15.4202 1.36617 15.4834 1.45159 15.5166 1.54395V1.54492L18.2744 9.76465L18.5479 10.582L19.4102 10.583L28.2607 10.5947V10.5957C28.3817 10.5964 28.4965 10.6344 28.5889 10.7002C28.6807 10.7657 28.7446 10.8541 28.7764 10.9492C28.808 11.0441 28.8077 11.1463 28.7764 11.2412C28.7449 11.3363 28.6814 11.4245 28.5898 11.4902L21.4961 16.3672L20.7637 16.8711L21.0322 17.7188L23.71 26.1484L23.7129 26.1582C23.7437 26.2524 23.7436 26.3532 23.7119 26.4473C23.6802 26.5417 23.6169 26.6295 23.5254 26.6943L23.5195 26.6982C23.4288 26.7631 23.3155 26.7999 23.1963 26.7998L23.1943 27.748V26.7998C23.0794 26.7998 22.9666 26.7656 22.8672 26.6973L15.6885 21.6758L15 21.1943L14.3125 21.6758L7.13477 26.6973L7.13281 26.6982C7.04043 26.7631 6.92595 26.8001 6.80566 26.7998C6.68523 26.7994 6.57044 26.7617 6.47852 26.6963L6.47559 26.6943L6.41211 26.6416C6.35402 26.5851 6.31204 26.5182 6.28809 26.4473C6.25635 26.3531 6.25629 26.2516 6.28711 26.1572L6.29004 26.1484L8.9668 17.7188L9.23633 16.8711L8.50293 16.3672L1.41113 11.4912C1.31903 11.4249 1.25526 11.3362 1.22363 11.2402C1.19249 11.1457 1.19199 11.0448 1.22266 10.9502C1.25471 10.8548 1.31902 10.7668 1.41113 10.7012C1.50363 10.6353 1.61816 10.5966 1.73926 10.5957L1.73828 10.5947L10.543 10.583L11.4004 10.582L11.6777 9.77051L14.4824 1.55078C14.515 1.45575 14.5794 1.36773 14.6719 1.30273C14.7648 1.2375 14.88 1.2002 15.001 1.2002Z" fill="white" stroke="#FDCC38" stroke-width="2.4"/>
</svg>
