<svg width="56" height="56" viewBox="0 0 56 56" fill="none" xmlns="http://www.w3.org/2000/svg">
<mask id="mask0_2239_691" style="mask-type:luminance" maskUnits="userSpaceOnUse" x="0" y="0" width="56" height="56">
<path d="M0 0H55.4524V55.4524H0V0Z" fill="white"/>
</mask>
<g mask="url(#mask0_2239_691)">
<mask id="mask1_2239_691" style="mask-type:luminance" maskUnits="userSpaceOnUse" x="0" y="0" width="56" height="56">
<path d="M27.7262 0C12.4135 0 0 12.4135 0 27.7262C0 43.0389 12.4135 55.4524 27.7262 55.4524C43.0389 55.4524 55.4524 43.0389 55.4524 27.7262C55.4524 12.4135 43.0389 0 27.7262 0Z" fill="white"/>
</mask>
<g mask="url(#mask1_2239_691)">
<mask id="mask2_2239_691" style="mask-type:luminance" maskUnits="userSpaceOnUse" x="-1" y="0" width="57" height="56">
<path d="M55.4551 0H-0.00268555V55.4577H55.4551V0Z" fill="white"/>
</mask>
<g mask="url(#mask2_2239_691)">
<mask id="mask3_2239_691" style="mask-type:luminance" maskUnits="userSpaceOnUse" x="0" y="0" width="56" height="56">
<path d="M0 0H55.4524V55.4524H0V0Z" fill="white"/>
</mask>
<g mask="url(#mask3_2239_691)">
<mask id="mask4_2239_691" style="mask-type:luminance" maskUnits="userSpaceOnUse" x="0" y="0" width="56" height="56">
<path d="M27.7262 0C12.4135 0 0 12.4135 0 27.7262C0 43.0389 12.4135 55.4524 27.7262 55.4524C43.0389 55.4524 55.4524 43.0389 55.4524 27.7262C55.4524 12.4135 43.0389 0 27.7262 0Z" fill="white"/>
</mask>
<g mask="url(#mask4_2239_691)">
<path d="M0 0H55.4524V55.4524H0V0Z" fill="#2F60A5"/>
</g>
</g>
</g>
</g>
</g>
<path d="M27.501 15.2002C27.6431 15.2003 27.7753 15.243 27.8789 15.3135C27.9816 15.3834 28.0466 15.4734 28.0781 15.5625L30.9248 23.7764L31.2041 24.582L32.0576 24.583L41.2031 24.5947V24.5957C41.3453 24.5965 41.4772 24.64 41.5801 24.7109C41.6822 24.7814 41.7467 24.8718 41.7773 24.9609C41.8076 25.049 41.8073 25.1415 41.7773 25.2295C41.747 25.3185 41.6836 25.4089 41.582 25.4795L34.251 30.3564L33.4902 30.8623L33.7754 31.7305L36.542 40.1592L36.5449 40.1699C36.5743 40.257 36.5742 40.3484 36.5439 40.4355C36.5132 40.5239 36.4494 40.6139 36.3477 40.6836L36.3418 40.6875C36.2404 40.7576 36.1094 40.8 35.9688 40.7998L35.9678 41.4043V40.7998C35.832 40.7998 35.7016 40.7605 35.5908 40.6865L28.1729 35.665L27.5 35.209L26.8271 35.665L19.4102 40.6865L19.4092 40.6875C19.306 40.7576 19.1737 40.8002 19.0322 40.7998C18.8906 40.7993 18.7587 40.7562 18.6562 40.6855L18.6533 40.6836L18.583 40.6279C18.5206 40.5691 18.4792 40.5018 18.4561 40.4355C18.4256 40.3482 18.4256 40.2563 18.4551 40.1689L18.458 40.1592L21.2236 31.7305L21.5088 30.8623L20.749 30.3564L13.418 25.4795C13.3168 25.4085 13.2531 25.3178 13.2227 25.2285C13.193 25.1411 13.1925 25.0494 13.2217 24.9619C13.2527 24.8725 13.3167 24.7815 13.4189 24.7109C13.522 24.6398 13.6545 24.5967 13.7969 24.5957L13.7959 24.5947L22.8945 24.583L23.7432 24.582L24.0244 23.7822L26.9229 15.5625C26.9543 15.4734 27.0194 15.3834 27.1221 15.3135C27.2257 15.2429 27.3588 15.2002 27.501 15.2002Z" fill="#2F60A5" stroke="#FDCC38" stroke-width="2.4"/>
</svg>
