<svg xmlns="http://www.w3.org/2000/svg" xmlns:xlink="http://www.w3.org/1999/xlink" width="1080" zoomAndPan="magnify" viewBox="0 0 810 817.92" height="1080" preserveAspectRatio="xMidYMid meet" version="1.2"><defs><clipPath id="c5e9dc67e5"><path d="M 72.480469 72.441406 L 737.519531 72.441406 L 737.519531 737.480469 L 72.480469 737.480469 Z M 72.480469 72.441406 "/></clipPath><clipPath id="0d547f3b4c"><path d="M 405 72.441406 C 221.355469 72.441406 72.480469 221.316406 72.480469 404.960938 C 72.480469 588.605469 221.355469 737.480469 405 737.480469 C 588.644531 737.480469 737.519531 588.605469 737.519531 404.960938 C 737.519531 221.316406 588.644531 72.441406 405 72.441406 Z M 405 72.441406 "/></clipPath><clipPath id="cc05d47552"><path d="M 0.480469 0.441406 L 665.519531 0.441406 L 665.519531 665.480469 L 0.480469 665.480469 Z M 0.480469 0.441406 "/></clipPath><clipPath id="4d99109d53"><path d="M 333 0.441406 C 149.355469 0.441406 0.480469 149.316406 0.480469 332.960938 C 0.480469 516.605469 149.355469 665.480469 333 665.480469 C 516.644531 665.480469 665.519531 516.605469 665.519531 332.960938 C 665.519531 149.316406 516.644531 0.441406 333 0.441406 Z M 333 0.441406 "/></clipPath><clipPath id="02cad5bfd6"><rect x="0" width="666" y="0" height="666"/></clipPath><clipPath id="922d8e915e"><path d="M 192.113281 219.214844 L 618 219.214844 L 618 590.429688 L 192.113281 590.429688 Z M 192.113281 219.214844 "/></clipPath></defs><g id="243dcc3fef"><g clip-rule="nonzero" clip-path="url(#c5e9dc67e5)"><g clip-rule="nonzero" clip-path="url(#0d547f3b4c)"><g transform="matrix(1,0,0,1,72,72)"><g clip-path="url(#02cad5bfd6)"><g clip-rule="nonzero" clip-path="url(#cc05d47552)"><g clip-rule="nonzero" clip-path="url(#4d99109d53)"><path style=" stroke:none;fill-rule:nonzero;fill:#2f60a5;fill-opacity:1;" d="M 0.480469 0.441406 L 665.519531 0.441406 L 665.519531 665.480469 L 0.480469 665.480469 Z M 0.480469 0.441406 "/></g></g></g></g></g></g><g clip-rule="nonzero" clip-path="url(#922d8e915e)"><path style=" stroke:none;fill-rule:nonzero;fill:#ffdb6f;fill-opacity:1;" d="M 570.417969 282.84375 L 526.828125 282.84375 C 522.128906 275 513.703125 269.632812 504.007812 269.285156 L 504.007812 268.625 C 504.007812 241.378906 481.84375 219.214844 454.597656 219.214844 L 355.398438 219.214844 C 328.152344 219.214844 305.988281 241.378906 305.988281 268.625 L 305.988281 269.285156 C 296.292969 269.628906 287.867188 274.996094 283.171875 282.84375 L 239.578125 282.84375 C 213.519531 282.84375 192.316406 304.042969 192.316406 330.105469 L 192.316406 374.570312 C 192.316406 390.625 195.847656 405.59375 202.816406 419.125 L 202.816406 538.414062 C 202.816406 567.253906 226.277344 590.710938 255.113281 590.710938 L 554.882812 590.710938 C 583.722656 590.710938 607.183594 567.253906 607.183594 538.414062 L 607.183594 419.125 C 614.152344 405.59375 617.679688 390.625 617.679688 374.570312 L 617.679688 330.105469 C 617.679688 304.042969 596.476562 282.84375 570.417969 282.84375 Z M 334.347656 279.417969 L 334.347656 268.625 C 334.347656 257.015625 343.789062 247.574219 355.398438 247.574219 L 454.597656 247.574219 C 466.207031 247.574219 475.648438 257.015625 475.648438 268.625 L 475.648438 279.417969 C 475.648438 280.589844 475.78125 281.730469 475.996094 282.84375 L 334 282.84375 C 334.214844 281.730469 334.347656 280.589844 334.347656 279.417969 Z M 220.675781 330.105469 C 220.675781 319.679688 229.15625 311.203125 239.578125 311.203125 L 570.417969 311.203125 C 580.839844 311.203125 589.320312 319.679688 589.320312 330.105469 L 589.320312 374.570312 C 589.320312 387.015625 586.414062 398.441406 580.675781 408.53125 L 579.96875 409.773438 C 566.210938 430.230469 541.277344 442.816406 510.203125 442.816406 L 448.835938 442.816406 L 448.835938 439.636719 C 448.835938 428.625 439.878906 419.671875 428.871094 419.671875 L 381.121094 419.671875 C 370.113281 419.671875 361.15625 428.625 361.15625 439.636719 L 361.15625 442.816406 L 299.789062 442.816406 C 268.714844 442.816406 243.785156 430.230469 230.023438 409.773438 L 229.316406 408.53125 C 223.582031 398.441406 220.675781 387.015625 220.675781 374.570312 Z M 425.207031 443.300781 L 425.207031 491.539062 L 384.789062 491.539062 L 384.789062 443.300781 Z M 554.882812 562.355469 L 255.113281 562.355469 C 241.910156 562.355469 231.171875 551.613281 231.171875 538.414062 L 231.171875 444.832031 C 249.199219 458.5 272.851562 466.445312 299.792969 466.445312 L 361.160156 466.445312 L 361.160156 495.203125 C 361.160156 506.214844 370.117188 515.171875 381.125 515.171875 L 428.871094 515.171875 C 439.882812 515.171875 448.839844 506.214844 448.839844 495.203125 L 448.839844 466.445312 L 510.203125 466.445312 C 537.148438 466.445312 560.796875 458.5 578.824219 444.832031 L 578.824219 538.414062 C 578.824219 551.613281 568.082031 562.355469 554.882812 562.355469 Z M 554.882812 562.355469 "/></g></g></svg>