<svg xmlns="http://www.w3.org/2000/svg" xmlns:xlink="http://www.w3.org/1999/xlink" width="1080" zoomAndPan="magnify" viewBox="0 0 810 817.92" height="1080" preserveAspectRatio="xMidYMid meet" version="1.2"><defs><clipPath id="d1a56852c6"><path d="M 0.0390625 51.632812 L 809.960938 51.632812 L 809.960938 758.0625 L 0.0390625 758.0625 Z M 0.0390625 51.632812 "/></clipPath></defs><g id="8b4dec82f0"><g clip-rule="nonzero" clip-path="url(#d1a56852c6)"><path style=" stroke:none;fill-rule:nonzero;fill:#ffdb6f;fill-opacity:1;" d="M 719.667969 172.667969 L 636.746094 172.667969 C 627.8125 157.742188 611.78125 147.535156 593.339844 146.875 L 593.339844 145.621094 C 593.339844 93.792969 551.179688 51.632812 499.351562 51.632812 L 310.648438 51.632812 C 258.820312 51.632812 216.660156 93.792969 216.660156 145.621094 L 216.660156 146.875 C 198.21875 147.53125 182.1875 157.742188 173.253906 172.664062 L 90.332031 172.664062 C 40.757812 172.667969 0.425781 212.996094 0.425781 262.570312 L 0.425781 347.15625 C 0.425781 377.695312 7.140625 406.164062 20.398438 431.910156 L 20.398438 658.824219 C 20.398438 713.683594 65.03125 758.308594 119.882812 758.308594 L 690.117188 758.308594 C 744.976562 758.308594 789.601562 713.683594 789.601562 658.824219 L 789.601562 431.910156 C 802.859375 406.167969 809.574219 377.695312 809.574219 347.15625 L 809.574219 262.570312 C 809.574219 212.996094 769.242188 172.667969 719.667969 172.667969 Z M 270.605469 166.148438 L 270.605469 145.621094 C 270.605469 123.539062 288.566406 105.574219 310.648438 105.574219 L 499.351562 105.574219 C 521.433594 105.574219 539.394531 123.539062 539.394531 145.621094 L 539.394531 166.148438 C 539.394531 168.382812 539.648438 170.550781 540.054688 172.667969 L 269.945312 172.667969 C 270.351562 170.550781 270.605469 168.378906 270.605469 166.148438 Z M 54.371094 262.570312 C 54.371094 242.742188 70.503906 226.609375 90.332031 226.609375 L 719.664062 226.609375 C 739.496094 226.609375 755.625 242.742188 755.625 262.570312 L 755.625 347.15625 C 755.625 370.828125 750.09375 392.558594 739.183594 411.757812 L 737.839844 414.117188 C 711.664062 453.035156 664.238281 476.976562 605.125 476.976562 L 488.390625 476.976562 L 488.390625 470.925781 C 488.390625 449.984375 471.351562 432.945312 450.410156 432.945312 L 359.582031 432.945312 C 338.640625 432.945312 321.601562 449.984375 321.601562 470.925781 L 321.601562 476.976562 L 204.867188 476.976562 C 145.753906 476.976562 98.328125 453.03125 72.152344 414.117188 L 70.808594 411.757812 C 59.902344 392.558594 54.371094 370.828125 54.371094 347.15625 Z M 443.441406 477.894531 L 443.441406 569.660156 L 366.558594 569.660156 L 366.558594 477.894531 Z M 690.117188 704.363281 L 119.882812 704.363281 C 94.769531 704.363281 74.339844 683.933594 74.339844 658.824219 L 74.339844 480.804688 C 108.628906 506.804688 153.621094 521.925781 204.875 521.925781 L 321.605469 521.925781 L 321.605469 576.628906 C 321.605469 597.574219 338.644531 614.613281 359.589844 614.613281 L 450.414062 614.613281 C 471.359375 614.613281 488.394531 597.574219 488.394531 576.628906 L 488.394531 521.925781 L 605.128906 521.925781 C 656.382812 521.925781 701.371094 506.804688 735.664062 480.804688 L 735.664062 658.824219 C 735.660156 683.9375 715.230469 704.363281 690.117188 704.363281 Z M 690.117188 704.363281 "/></g></g></svg>